<?xml version="1.0" encoding="iso-8859-1"?>
<!-- Generator: Adobe Illustrator 17.1.0, SVG Export Plug-In . SVG Version: 6.00 Build 0)  -->
<!DOCTYPE svg PUBLIC "-//W3C//DTD SVG 1.1//EN" "http://www.w3.org/Graphics/SVG/1.1/DTD/svg11.dtd">
<svg version="1.1" id="Capa_1" xmlns="http://www.w3.org/2000/svg" xmlns:xlink="http://www.w3.org/1999/xlink" x="0px" y="0px"
	 viewBox="0 0 205.369 205.369" style="enable-background:new 0 0 205.369 205.369;" xml:space="preserve">
<path d="M114.307,205.369c-0.807,0-1.598-0.389-2.08-1.109c-0.768-1.147-0.461-2.7,0.687-3.468
	c0.308-0.207,30.861-20.895,32.43-40.741c0.477-6.029-1.77-11.259-6.867-15.989c-13.333-12.372-37.429-1.748-58.689,7.626
	c-20.285,8.944-37.804,16.668-44.68,4.293c-12.116-21.81,10.723-42.609,15.154-46.349l18.014-80.838l-6.171,2.673
	c-1.268,0.548-2.739-0.032-3.288-1.3c-0.549-1.267,0.033-2.739,1.3-3.288l5.639-2.442l-6.097-2.918
	c-1.246-0.596-1.772-2.089-1.176-3.334c0.596-1.244,2.089-1.774,3.334-1.175l6.871,3.289l-1.004-7.471
	c-0.185-1.368,0.776-2.627,2.145-2.811c1.378-0.184,2.627,0.776,2.811,2.145l1.295,9.63l83.113-9.426l0.473-9.983
	c0.065-1.379,1.253-2.438,2.615-2.379c1.379,0.065,2.444,1.236,2.379,2.615l-0.212,4.485l3.369-4.164
	c0.868-1.073,2.441-1.24,3.516-0.371c1.073,0.869,1.239,2.443,0.371,3.516l-3.355,4.146l4.423-1.172
	c1.337-0.356,2.704,0.441,3.058,1.776c0.354,1.334-0.441,2.704-1.776,3.057l-10.418,2.762l-20.16,76.117l7.758,0.245
	c1.38,0.043,2.463,1.197,2.42,2.577c-0.044,1.38-1.211,2.451-2.578,2.42l-5.084-0.16l4.603,5.166
	c0.918,1.031,0.827,2.611-0.204,3.53c-1.031,0.918-2.611,0.827-3.53-0.204l-2.04-2.291l0.922,4.092
	c0.304,1.347-0.542,2.685-1.889,2.989c-1.353,0.302-2.685-0.543-2.988-1.889l-2.521-11.179l-82.601,15.293
	c-3.395,2.824-24.512,21.483-14.117,40.195c4.66,8.389,20.997,1.185,38.292-6.441c22.669-9.996,48.365-21.324,64.106-6.716
	c6.206,5.758,9.049,12.506,8.45,20.055c-1.765,22.257-33.291,43.598-34.632,44.495C115.268,205.232,114.785,205.369,114.307,205.369
	z M106.775,65.461l-46.014,41.486l72.389-13.403L106.775,65.461z M73.194,29.706l-16.536,74.208l46.693-42.099L73.194,29.706z
	 M110.489,62.112l26.354,28.061l18.031-68.079L110.489,62.112z M77.017,26.473l30.048,31.994l44.915-40.496L77.017,26.473z"/>
<g>
</g>
<g>
</g>
<g>
</g>
<g>
</g>
<g>
</g>
<g>
</g>
<g>
</g>
<g>
</g>
<g>
</g>
<g>
</g>
<g>
</g>
<g>
</g>
<g>
</g>
<g>
</g>
<g>
</g>
</svg>
